<?xml version="1.0" standalone="no"?><!DOCTYPE svg PUBLIC "-//W3C//DTD SVG 1.1//EN" "http://www.w3.org/Graphics/SVG/1.1/DTD/svg11.dtd"><svg width="16" height="16" viewBox="0 0 16 16" version="1.1" xmlns="http://www.w3.org/2000/svg" xmlns:xlink="http://www.w3.org/1999/xlink"><defs><style type="text/css"><![CDATA[
@font-face { font-family: ifont; src: url("http://at.alicdn.com/t/font_1442373896_4754455.eot?#iefix") format("embedded-opentype"), url("http://at.alicdn.com/t/font_1442373896_4754455.woff") format("woff"), url("http://at.alicdn.com/t/font_1442373896_4754455.ttf") format("truetype"), url("http://at.alicdn.com/t/font_1442373896_4754455.svg#ifont") format("svg"); }

]]></style></defs><g class="transform-group"><g transform="scale(0.015625, 0.015625)"><path d="M926.476 512c0-229.361-186.018-414.476-414.476-414.476s-414.476 186.018-414.476 414.476 186.018 414.476 414.476 414.476 414.476-185.115 414.476-414.476zM489.425 658.286l-206.787-205.883c-6.321-6.321-9.030-14.448-9.030-22.575s2.709-16.254 9.030-22.575c12.642-12.642 32.508-12.642 45.15 0l184.212 184.212 181.503-183.309c12.642-12.642 32.508-12.642 44.246 0 12.642 12.642 12.642 32.508 0 44.246l-204.078 205.884c-6.321 6.321-13.545 9.030-22.575 9.030-7.224 0-15.351-2.709-21.672-9.030z" fill="#272636"></path></g></g></svg>