<?xml version="1.0" standalone="no"?><!DOCTYPE svg PUBLIC "-//W3C//DTD SVG 1.1//EN" "http://www.w3.org/Graphics/SVG/1.1/DTD/svg11.dtd"><svg width="32" height="32" viewBox="0 0 32 32" version="1.1" xmlns="http://www.w3.org/2000/svg" xmlns:xlink="http://www.w3.org/1999/xlink"><defs><style type="text/css"><![CDATA[
@font-face { font-family: ifont; src: url("http://at.alicdn.com/t/font_1442373896_4754455.eot?#iefix") format("embedded-opentype"), url("http://at.alicdn.com/t/font_1442373896_4754455.woff") format("woff"), url("http://at.alicdn.com/t/font_1442373896_4754455.ttf") format("truetype"), url("http://at.alicdn.com/t/font_1442373896_4754455.svg#ifont") format("svg"); }

]]></style></defs><g class="transform-group"><g transform="scale(0.03125, 0.03125)"><path d="M504.762072 461.725182c-30.909654 0-56.056389 25.146735-56.056389 56.063446 0 30.91772 25.147743 56.068487 56.056389 56.068487 30.920744 0 56.073528-25.151776 56.074537-56.068487C560.837616 486.870909 535.682816 461.725182 504.762072 461.725182zM345.176792 615.74616l41.673287 0 0 42.977909-41.673287 0 0-42.977909ZM345.176792 682.386721l41.673287 0 0 42.976901-41.673287 0 0-42.976901ZM622.613572 615.74616l41.674296 0 0 42.977909-41.674296 0 0-42.977909ZM505.002025 16.467068c-335.370453 0-503.076851 167.688251-503.076851 503.097015 0 335.380535 167.706399 503.076851 503.076851 503.076851 335.413806 0 503.112139-167.701358 503.112139-503.076851C1008.113156 184.155319 840.415831 16.467068 505.002025 16.467068zM719.051733 593.108856l0 178.788626-156.897396 0 0-25.716372L453.246654 746.181109l0 25.716372L290.47846 771.897482 290.47846 593.108856l-27.048216-0.4053 0-75.822315 134.285297 0.274233 0-45.339133-40.735653 0 134.848886-91.291257 0.166354-113.31557c0 0 105.097663 50.813705 105.049269 51.256308-0.035287 0.374045-80.302793 39.485475-80.302793 39.485475l0.25911 22.258218 135.76938 91.60481-40.95141 0 0 45.339133 0 0 134.556505 0 0.232896 75.549091L719.051733 593.108856zM622.613572 682.386721l41.674296 0 0 42.976901-41.674296 0 0-42.976901Z" fill="#ea8010"></path></g></g></svg>