<?xml version="1.0" standalone="no"?><!DOCTYPE svg PUBLIC "-//W3C//DTD SVG 1.1//EN" "http://www.w3.org/Graphics/SVG/1.1/DTD/svg11.dtd"><svg width="32" height="32" viewBox="0 0 32 32" version="1.1" xmlns="http://www.w3.org/2000/svg" xmlns:xlink="http://www.w3.org/1999/xlink"><defs><style type="text/css"><![CDATA[
@font-face { font-family: ifont; src: url("http://at.alicdn.com/t/font_1442373896_4754455.eot?#iefix") format("embedded-opentype"), url("http://at.alicdn.com/t/font_1442373896_4754455.woff") format("woff"), url("http://at.alicdn.com/t/font_1442373896_4754455.ttf") format("truetype"), url("http://at.alicdn.com/t/font_1442373896_4754455.svg#ifont") format("svg"); }

]]></style></defs><g class="transform-group"><g transform="scale(0.03125, 0.03125)"><path d="M921.6 614.4l-128 0L665.6 394.24c30.72-15.36 51.2-51.2 51.2-87.04L716.8 102.4c0-56.32-46.08-102.4-102.4-102.4L409.6 0C353.28 0 307.2 46.08 307.2 102.4l0 204.8c0 35.84 20.48 66.56 51.2 87.04L230.4 614.4 102.4 614.4c-56.32 0-102.4 46.08-102.4 102.4l0 204.8c0 56.32 46.08 102.4 102.4 102.4l204.8 0c56.32 0 102.4-46.08 102.4-102.4l0-66.56 204.8 0L614.4 921.6c0 56.32 46.08 102.4 102.4 102.4l204.8 0c56.32 0 102.4-46.08 102.4-102.4l0-204.8C1024 660.48 977.92 614.4 921.6 614.4zM409.6 778.24 409.6 716.8c0-51.2-40.96-97.28-92.16-102.4l117.76-204.8 148.48 0 117.76 204.8c-51.2 5.12-92.16 46.08-92.16 102.4l0 61.44L409.6 778.24z" fill="#000000"></path></g></g></svg>