<?xml version="1.0" standalone="no"?><!DOCTYPE svg PUBLIC "-//W3C//DTD SVG 1.1//EN" "http://www.w3.org/Graphics/SVG/1.1/DTD/svg11.dtd"><svg width="64" height="64" viewBox="0 0 64 64" version="1.1" xmlns="http://www.w3.org/2000/svg" xmlns:xlink="http://www.w3.org/1999/xlink"><defs><style type="text/css"><![CDATA[
@font-face { font-family: ifont; src: url("http://at.alicdn.com/t/font_1442373896_4754455.eot?#iefix") format("embedded-opentype"), url("http://at.alicdn.com/t/font_1442373896_4754455.woff") format("woff"), url("http://at.alicdn.com/t/font_1442373896_4754455.ttf") format("truetype"), url("http://at.alicdn.com/t/font_1442373896_4754455.svg#ifont") format("svg"); }

]]></style></defs><g class="transform-group"><g transform="scale(0.0625, 0.0625)"><path d="M655.3344 678.5024 263.8848 678.5024c-11.6736 0-21.1456 9.5488-21.1456 21.2736s9.472 21.2736 21.1456 21.2736l391.4496 0c11.6992 0 21.1456-9.5488 21.1456-21.2736S667.0336 678.5024 655.3344 678.5024zM655.3344 771.6608 263.8848 771.6608c-11.6736 0-21.1456 9.4976-21.1456 21.248s9.472 21.248 21.1456 21.248l391.4496 0c11.6992 0 21.1456-9.4976 21.1456-21.248S667.0336 771.6608 655.3344 771.6608zM655.3344 864.7936 263.8848 864.7936c-11.6736 0-21.1456 9.5232-21.1456 21.2224s9.472 21.2992 21.1456 21.2992l391.4496 0c11.6992 0 21.1456-9.6 21.1456-21.2992S667.0336 864.7936 655.3344 864.7936zM655.3344 235.2128l-146.3552 0c-11.6992 0-21.1712 9.4976-21.1712 21.2736 0 11.7248 9.472 21.2224 21.1712 21.2224l146.3552 0c11.6992 0 21.1456-9.4976 21.1456-21.2224C676.48 244.7104 667.0336 235.2128 655.3344 235.2128zM703.36 108.5952 216.4736 108.6208c-65.0752 0-117.8112 52.9408-117.8112 118.2976L98.6624 905.728c0 65.3568 52.736 118.272 117.8112 118.272l486.8864 0c65.0752 0 117.8112-52.9152 117.8112-118.272L821.1712 226.9184C821.1456 161.5616 768.4352 108.6208 703.36 108.5952zM774.0672 905.728c-0.1024 39.168-31.6928 70.9376-70.7328 70.9888L216.4736 976.7168c-39.0144-0.0512-70.6304-31.8208-70.6816-70.9888L145.792 226.9184C145.8432 187.7248 177.4592 155.9808 216.4736 155.904l486.8864 0c39.0144 0.0512 70.6304 31.8208 70.7328 71.0144L774.0928 905.728zM655.3344 339.328l-146.3552 0c-11.6992 0-21.1712 9.4976-21.1712 21.2224 0 11.7504 9.472 21.2736 21.1712 21.2736l146.3552 0c11.6992 0 21.1456-9.5232 21.1456-21.2736C676.48 348.8256 667.0336 339.328 655.3344 339.328zM852.1472 24.1152c-38.2976-22.6048-76.8-23.9872-89.8048-24.1152-1.9456 0-3.3792 0.0512-4.1472 0.0768L253.44 0.0768l0 47.36 506.3936 0 0.64-0.0768c0 0 0.2304 0 1.8432 0 8.4224-0.1024 39.6288 1.6896 65.7152 17.4848 25.7792 16.2048 49.4592 42.3424 50.1248 106.1632 0 701.5168 0 701.5168 0.0512 701.5168l47.0784 0c0 0 0 0 0-701.5168C926.0544 93.9008 890.752 46.4128 852.1472 24.1152zM270.208 542.7968l160.9216 0c15.616 0 28.2624-12.7232 28.2624-28.416l0-250.8544c0-15.6928-12.6464-28.3648-28.2624-28.3648l-160.9216 0c-15.5904 0-28.2368 12.672-28.2368 28.3648l0 250.8544C241.9712 530.0992 254.6176 542.7968 270.208 542.7968z" fill="#ea8010"></path></g></g></svg>