<?xml version="1.0" standalone="no"?><!DOCTYPE svg PUBLIC "-//W3C//DTD SVG 1.1//EN" "http://www.w3.org/Graphics/SVG/1.1/DTD/svg11.dtd"><svg width="32" height="32" viewBox="0 0 32 32" version="1.1" xmlns="http://www.w3.org/2000/svg" xmlns:xlink="http://www.w3.org/1999/xlink"><defs><style type="text/css"><![CDATA[
@font-face { font-family: ifont; src: url("http://at.alicdn.com/t/font_1442373896_4754455.eot?#iefix") format("embedded-opentype"), url("http://at.alicdn.com/t/font_1442373896_4754455.woff") format("woff"), url("http://at.alicdn.com/t/font_1442373896_4754455.ttf") format("truetype"), url("http://at.alicdn.com/t/font_1442373896_4754455.svg#ifont") format("svg"); }

]]></style></defs><g class="transform-group"><g transform="scale(0.03125, 0.03125)"><path d="M846.3504 764.1376c25.2912-13.4976 42.1152-35.4528 69.12-43.9664-72.5472 105.8944-143.2752 189.2896-296.2352 200.2864-124.4928 8.9552-235.08-39.8336-311.0528-92.8176-19.2048-13.3888-41.9168-27.6192-54.3072-39.08-4.216-3.9008-0.8992-15.4176-4.9408-19.5456-18.1584-18.5152-56.608-50.176-74.0576-78.1568-8.2144-13.168-12.3024-33.3584-19.752-48.8544-32.3504-67.3584-57.2016-190.336-24.6768-283.344 8.448-24.1904 29.7824-48.2832 44.4288-68.3968 15.1408-20.8 31.1856-38.456 44.4336-63.504-3.36 53.0672-24.8768 86.3184-19.752 156.3248 12.2928 167.8816 125.528 295.064 246.872 366.392 2.736 1.6208 12.7728-2.2896 14.8032 0 8.296 9.3232 27.96 18.6832 59.256 29.3104C614.1856 810.6384 761.4192 809.432 846.3504 764.1376L846.3504 764.1376zM846.3504 764.1376M915.4704 510.1024c-35.4016 78.1168-106.768 150.4912-246.872 141.6752C481.2576 639.984 296.608 433.9904 377.3072 246.3024c7.4128-17.256 22.9568-32.7232 34.5568-48.856 10.888-15.1488 20.9904-33.64 39.4976-43.976-80.6032 165.5424 64.224 336.9872 192.5552 390.8288C721.0528 576.6656 867.1984 559.4016 915.4704 510.1024L915.4704 510.1024zM915.4704 510.1024M614.2928 168.1344c1.5936 140.5504 174.3248 246.0288 311.0528 175.864-40.024 102.1552-197.3344 105.024-286.368 29.312-74.5184-63.3776-90.8336-181.592-19.7424-258.9104C632.8432 134.8624 614.0784 148.9088 614.2928 168.1344L614.2928 168.1344zM614.2928 168.1344" fill="#F44336"></path></g></g></svg>