<?xml version="1.0" standalone="no"?><!DOCTYPE svg PUBLIC "-//W3C//DTD SVG 1.1//EN" "http://www.w3.org/Graphics/SVG/1.1/DTD/svg11.dtd"><svg width="64" height="64" viewBox="0 0 64 64" version="1.1" xmlns="http://www.w3.org/2000/svg" xmlns:xlink="http://www.w3.org/1999/xlink"><defs><style type="text/css"><![CDATA[
@font-face { font-family: ifont; src: url("http://at.alicdn.com/t/font_1442373896_4754455.eot?#iefix") format("embedded-opentype"), url("http://at.alicdn.com/t/font_1442373896_4754455.woff") format("woff"), url("http://at.alicdn.com/t/font_1442373896_4754455.ttf") format("truetype"), url("http://at.alicdn.com/t/font_1442373896_4754455.svg#ifont") format("svg"); }

]]></style></defs><g class="transform-group"><g transform="scale(0.0625, 0.0625)"><path d="M1007.696 512.24C1007.696 238.48 785.768 16.552 512 16.552S16.304 238.48 16.304 512.24c0 272.576 220.008 493.752 492.128 495.672C509.624 1007.968 510.816 1008 512 1008s2.376-0.032 3.56-0.08C787.688 1006 1007.696 784.816 1007.696 512.24zM512 912.056C512 912.056 512 912.056 512 912.056 512 912.056 512 912.056 512 912.056c-32.52-0.008-95.52-83.992-131.984-207.872l263.96 0C607.52 828.064 544.52 912.056 512 912.056zM359.072 608.248c-4.448-30.736-6.976-62.864-6.976-95.944 0-33.072 2.544-65.208 7.016-95.944l305.76 0c4.48 30.736 7.016 62.872 7.016 95.944s-2.528 65.208-6.976 95.944L359.072 608.248zM112.248 512.304c0-33.072 4.024-65.208 11.592-95.944l138.232 0c-3.832 31.04-5.912 63.12-5.912 95.944s2.072 64.904 5.896 95.944L123.84 608.248C116.264 577.512 112.248 545.376 112.248 512.304zM512 112.552c31.976 0 95.176 83.992 131.824 207.872L380.176 320.424C416.824 196.544 480.024 112.552 512 112.552zM761.936 416.36l138.232 0c7.568 30.736 11.592 62.872 11.592 95.944s-4.024 65.208-11.592 95.944L761.944 608.248c3.832-31.04 5.896-63.12 5.896-95.944C767.84 479.48 765.768 447.4 761.936 416.36zM862.768 320.424 743.88 320.424c-17.048-66.752-42.016-126.064-70.992-174.168C753.736 181.832 820.56 243.424 862.768 320.424zM351.112 146.248c-28.976 48.104-53.936 107.424-70.992 174.168L161.232 320.416C203.44 243.424 270.264 181.832 351.112 146.248zM161.232 704.184l118.856 0c17.024 66.72 41.944 126.016 70.888 174.112C270.192 842.704 203.416 781.144 161.232 704.184zM673.016 878.296c28.944-48.096 53.872-107.392 70.888-174.112l118.856 0C820.584 781.144 753.808 842.704 673.016 878.296z" fill="#ea8010"></path></g></g></svg>