<?xml version="1.0" standalone="no"?><!DOCTYPE svg PUBLIC "-//W3C//DTD SVG 1.1//EN" "http://www.w3.org/Graphics/SVG/1.1/DTD/svg11.dtd"><svg width="64" height="64" viewBox="0 0 64 64" version="1.1" xmlns="http://www.w3.org/2000/svg" xmlns:xlink="http://www.w3.org/1999/xlink"><defs><style type="text/css"><![CDATA[
@font-face { font-family: ifont; src: url("http://at.alicdn.com/t/font_1442373896_4754455.eot?#iefix") format("embedded-opentype"), url("http://at.alicdn.com/t/font_1442373896_4754455.woff") format("woff"), url("http://at.alicdn.com/t/font_1442373896_4754455.ttf") format("truetype"), url("http://at.alicdn.com/t/font_1442373896_4754455.svg#ifont") format("svg"); }

]]></style></defs><g class="transform-group"><g transform="scale(0.0625, 0.0625)"><path d="M954.696076 453.702246c0-103.46035-85.649705-187.331549-191.305047-187.331549-20.986987 0-41.179888 3.319605-60.07319 9.434883 0.007163-0.668219 0.025583-1.334391 0.025583-2.004657 0-102.935394-86.35988-186.381921-192.888102-186.381921-104.504122 0-189.585893 80.304977-192.784748 180.532703-18.383696-5.755074-37.969776-8.872065-58.303894-8.872065-105.654318 0-191.305047 83.871199-191.305047 187.331549 0 80.69895 52.110845 149.474336 125.176954 175.832657-25.7822 31.772634-41.181935 71.934333-41.181935 115.608018 0 102.93437 85.514629 186.381921 191.002149 186.381921 64.23293 0 121.05917-30.94171 155.683758-78.383208 33.286104 54.909587 94.64252 91.74861 164.842349 91.74861 105.662505 0 191.31835-83.445504 191.31835-186.381921 0-44.099381-15.731286-84.613096-42.012859-116.528993C894.550231 613.326756 954.696076 540.39777 954.696076 453.702246zM510.771521 663.386896c-71.359234 0-129.207757-56.760748-129.207757-126.776382 0-70.018703 57.848523-126.779452 129.207757-126.779452 71.361281 0 129.20878 56.760748 129.20878 126.779452C639.979278 606.626147 582.132802 663.386896 510.771521 663.386896z" fill="#ea8010"></path></g></g></svg>