<?xml version="1.0" standalone="no"?><!DOCTYPE svg PUBLIC "-//W3C//DTD SVG 1.1//EN" "http://www.w3.org/Graphics/SVG/1.1/DTD/svg11.dtd"><svg width="32" height="32" viewBox="0 0 32 32" version="1.1" xmlns="http://www.w3.org/2000/svg" xmlns:xlink="http://www.w3.org/1999/xlink"><defs><style type="text/css"><![CDATA[
@font-face { font-family: ifont; src: url("http://at.alicdn.com/t/font_1442373896_4754455.eot?#iefix") format("embedded-opentype"), url("http://at.alicdn.com/t/font_1442373896_4754455.woff") format("woff"), url("http://at.alicdn.com/t/font_1442373896_4754455.ttf") format("truetype"), url("http://at.alicdn.com/t/font_1442373896_4754455.svg#ifont") format("svg"); }

]]></style></defs><g class="transform-group"><g transform="scale(0.03125, 0.03125)"><path d="M773.340486 35.247206 250.659514 35.247206c-117.032931 0-211.902846 94.869915-211.902846 211.902846l0 529.738042c0 117.032931 94.869915 211.902846 211.902846 211.902846l522.642825 0c117.032931 0 211.902846-94.869915 211.902846-211.902846L985.205186 247.150052C985.205186 130.117121 890.33527 35.247206 773.340486 35.247206zM223.270451 815.949933c0 0-0.648488-81.022798 16.212189-97.73089s33.988377-46.72925 123.47966-60.385636c89.453137-13.694531 76.521532-62.483684 79.458799-60.95783-0.534049-18.500969-0.72478-43.486813-0.72478-43.486813s-35.819401-21.400089-49.552079-61.911489c-28.800477-11.977947-25.02399-19.683505-27.808672-35.170913 0 0-8.735509-62.788854 10.680972-61.491879 0 0 10.833557 0 7.743704-14.381165-1.029951-24.032186-0.648488-69.044852 0.877366-85.066309s13.007897-59.241246 45.470422-65.649829c32.500671-6.408583 19.454627-0.305171 30.288184-1.907316s7.743704-10.90985 27.808672-10.90985l41.426911-9.193265c20.103114 0 32.958426 29.029355 43.791983 30.631501s13.732678-2.632097 35.857547 1.640292c32.462524 6.408583 30.135598 52.184175 31.699598 68.205633s2.555804 61.034123-0.495902 75.453435c-3.089852 14.419312 6.561168 11.176874 6.561168 11.176874 20.408285-0.305171 14.037848 63.132171 14.037848 63.132171-3.585755 16.288482-11.787215 18.272091-33.378036 32.386232-13.732678 40.473253-44.097154 65.306512-44.097154 65.306512s-0.953658 30.898525-1.106243 38.184473c0.610341 2.899121-13.694531 50.963493 73.279094 64.009537 89.491283 13.656385 107.877813 43.715691 124.738489 60.385636 16.860677 16.708091 21.171211 98.074207 21.171211 98.074207L223.270451 815.949933z" fill="#ea8010"></path></g></g></svg>