<?xml version="1.0" standalone="no"?><!DOCTYPE svg PUBLIC "-//W3C//DTD SVG 1.1//EN" "http://www.w3.org/Graphics/SVG/1.1/DTD/svg11.dtd"><svg width="32" height="32" viewBox="0 0 32 32" version="1.1" xmlns="http://www.w3.org/2000/svg" xmlns:xlink="http://www.w3.org/1999/xlink"><defs><style type="text/css"><![CDATA[
@font-face { font-family: ifont; src: url("http://at.alicdn.com/t/font_1442373896_4754455.eot?#iefix") format("embedded-opentype"), url("http://at.alicdn.com/t/font_1442373896_4754455.woff") format("woff"), url("http://at.alicdn.com/t/font_1442373896_4754455.ttf") format("truetype"), url("http://at.alicdn.com/t/font_1442373896_4754455.svg#ifont") format("svg"); }

]]></style></defs><g class="transform-group"><g transform="scale(0.03125, 0.03125)"><path d="M512 0.008186c-341.312867 0-511.974418 170.642108-511.974418 511.983627 0 341.339473 170.66155 511.991814 511.974418 511.991814 341.3231 0 511.974418-170.651317 511.974418-511.991814C1023.974418 170.650294 853.322077 0.008186 512 0.008186zM471.850902 801.331375c-28.21642 6.223699-56.640569 4.566979-85.269377-4.979368-28.629832-9.543277-53.941108-25.3123-75.931783-47.300928-22.40818-21.578285-37.449638-46.578479-45.124373-74.999558-7.677805-28.422102-8.4023-56.535169-2.177578-84.335106 28.626762-6.224722 57.157334-5.496134 85.578413 2.177578 28.421079 7.677805 53.836732 22.30278 76.242865 43.883112 10.788631 10.786584 19.918496 22.922899 27.386525 36.40792 7.470076 13.485021 13.173939 27.486808 17.114659 42.009454 3.942767 14.521622 6.015969 29.25609 6.225745 44.192148C476.103729 773.324731 474.751952 787.639647 471.850902 801.331375zM758.463374 674.052544c-7.676782 28.420056-22.51051 53.421273-44.501184 74.999558-10.788631 10.786584-23.443758 19.813096-37.966403 27.072372-14.522645 7.263369-29.874162 13.068539-46.058644 17.427789-16.180388 4.358226-32.882658 7.262346-50.102718 8.716453-17.219036 1.446943-34.128012 1.762119-50.726929 0.933248l-36.098884 0L493.008612 569.1778c-24.063876-2.489684-46.468986-9.129865-67.216354-19.917473-16.184481-8.297924-31.017186-18.674166-44.503231-31.119516-13.483998-12.450467-24.999171-26.348901-34.540401-41.700418-9.545324-15.350494-17.013353-31.949411-22.410227-49.791635-5.392781-17.842224-8.088148-36.514343-8.088148-56.015333 0-26.143218 5.187098-51.453471 15.558223-75.931783 19.917473 4.978345 38.280556 12.55075 55.082086 22.716193 16.805623 10.163396 31.846058 22.509486 45.126419 37.033155 3.734014-28.215396 12.964163-54.045485 27.694538-77.490266 14.731398-23.439664 33.298117-43.049124 55.707321-58.814054 23.233981 15.765953 42.218206 35.684448 56.948581 59.748325 14.731398 24.067969 23.752794 50.41687 27.072372 79.046702 13.278315-14.521622 28.424149-27.073396 45.434432-37.65532 17.01233-10.578855 35.478766-18.361036 55.394192-23.339381 9.544301 23.650464 14.315939 48.544235 14.315939 74.688476 0 19.086555-2.59406 37.548897-7.782181 55.392145-5.187098 17.842224-12.65615 34.441141-22.40511 49.792658-9.751007 15.350494-21.267203 29.254044-34.541425 41.699394-13.278315 12.45149-28.007667 22.821592-44.192148 31.120539l0 0.622165c-11.616479 5.809263-23.547111 10.478572-35.787802 14.00588-12.237621 3.526285-24.999171 5.70284-38.276462 6.536828l0 167.421789c4.978345-17.00926 12.655127-33.298117 23.029322-48.855317 10.373172-15.562316 22.406133-29.977515 36.098884-43.256854 10.787608-10.788631 23.132675-20.333955 37.033155-28.630855 13.899457-8.297924 28.316703-14.937081 43.256854-19.919519 14.938104-4.976298 30.079845-8.088148 45.434432-9.334525 15.35254-1.245354 30.078822-0.416482 44.188055 2.488661C766.865674 617.517375 766.141179 645.630442 758.463374 674.052544z" fill="#ea8010"></path></g></g></svg>