<?xml version="1.0" standalone="no"?><!DOCTYPE svg PUBLIC "-//W3C//DTD SVG 1.1//EN" "http://www.w3.org/Graphics/SVG/1.1/DTD/svg11.dtd"><svg width="32" height="32" viewBox="0 0 32 32" version="1.1" xmlns="http://www.w3.org/2000/svg" xmlns:xlink="http://www.w3.org/1999/xlink"><defs><style type="text/css"><![CDATA[
@font-face { font-family: ifont; src: url("http://at.alicdn.com/t/font_1442373896_4754455.eot?#iefix") format("embedded-opentype"), url("http://at.alicdn.com/t/font_1442373896_4754455.woff") format("woff"), url("http://at.alicdn.com/t/font_1442373896_4754455.ttf") format("truetype"), url("http://at.alicdn.com/t/font_1442373896_4754455.svg#ifont") format("svg"); }

]]></style></defs><g class="transform-group"><g transform="scale(0.03125, 0.03125)"><path d="M490.837333 684.8c4.053333 5.973333 10.794667 9.514667 18.005333 9.514667 7.253333 0 13.994667-3.584 18.005333-9.514667l205.226667-303.189333c24.533333-38.784 37.504-83.370667 37.504-128.896 0-137.514667-116.949333-249.386667-260.736-249.386667-143.786667 0-260.736 111.872-260.736 249.386667 0 45.568 13.013333 90.24 38.016 129.664L490.837333 684.8zM508.842667 132.864c72.021333 0 130.389333 58.026667 130.389333 129.578667s-58.368 129.578667-130.389333 129.578667-130.389333-58.026667-130.389333-129.578667S436.864 132.864 508.842667 132.864zM39.509333 464.725333 39.509333 1018.794667 317.653333 986.197333 317.653333 559.274667 233.514667 441.984ZM508.842667 758.058667c-30.378667 0-58.666667-14.08-75.648-37.717333l-63.402667-88.362667 0 354.261333 278.144 32.597333 0-386.816-63.36 88.277333C567.552 743.936 539.264 758.058667 508.842667 758.058667zM774.144 456.021333 700.074667 559.274667 700.074667 1018.794667 978.176 986.197333 978.176 432.128Z" fill="#ea8010"></path></g></g></svg>