<?xml version="1.0" standalone="no"?><!DOCTYPE svg PUBLIC "-//W3C//DTD SVG 1.1//EN" "http://www.w3.org/Graphics/SVG/1.1/DTD/svg11.dtd"><svg width="16.015625" height="16" viewBox="0 0 16.015625 16" version="1.1" xmlns="http://www.w3.org/2000/svg" xmlns:xlink="http://www.w3.org/1999/xlink"><defs><style type="text/css"><![CDATA[
@font-face { font-family: ifont; src: url("http://at.alicdn.com/t/font_1442373896_4754455.eot?#iefix") format("embedded-opentype"), url("http://at.alicdn.com/t/font_1442373896_4754455.woff") format("woff"), url("http://at.alicdn.com/t/font_1442373896_4754455.ttf") format("truetype"), url("http://at.alicdn.com/t/font_1442373896_4754455.svg#ifont") format("svg"); }

]]></style></defs><g class="transform-group"><g transform="scale(0.015625, 0.015625)"><path d="M753 507l6.3-11.3-12.8-46.5-16.3-1.3 2-32c7.2-116.9-30.8-198.7-112.9-243.1-33.3-18-71-27.5-109-27.5-38.1 0-75.8 9.5-109 27.5C319.1 217.3 281.1 299.1 288.3 416l2 32-16.3 1.3-12.7 46.4 6.4 11.4-15.2 17.5c-0.6 0.7-63 74.7-49.3 164 8.2-12.3 12.7-22.3 12.8-22.5l39.2-88.8 21.1 94.9c0.1 0.3 12.8 52.6 60.2 96.3l44.3 40.9-58.1 14.8c-34 8.7-49.1 21.9-51.8 27 4.8 8.1 36.4 25.8 92.2 25.8 3.5 0 7-0.1 10.5-0.2 57.3-2.3 91.5-21.4 99.6-32.9l10.1-14.3 17.3 0.8c1.5 0.1 2.7 0.2 3.9 0.2 1.4 0.1 2.7 0.2 5.6 0.2s4.3-0.1 5.6-0.2c1.2-0.1 2.4-0.2 3.9-0.2l17.3-0.8 10.1 14.3c8.1 11.5 42.3 30.6 99.6 32.9 3.5 0.1 7 0.2 10.5 0.2 55.8 0 87.4-17.7 92.2-25.8-2.7-5-17.7-18.3-51.8-27l-58.1-14.8 44.3-40.9c47.4-43.7 60.1-96 60.2-96.5l21.8-92.9 38.6 86.9c0 0.1 4.6 10.1 12.8 22.5 13.6-89.3-48.7-163.3-49.4-164.1L753 507zM853.3 0 170.7 0C76.4 0 0 76.4 0 170.7l0 682.7C0 947.6 76.4 1024 170.7 1024l682.7 0c94.3 0 170.7-76.4 170.7-170.7L1024.1 170.7C1024 76.4 947.6 0 853.3 0zM840 729.8c0 0-3.8 11.6-13.1 11.6-4.3 0-9.7-2.5-16.5-9.7-22.5-24-35-52.3-35-52.3s-13.7 61.4-69.9 113.2c45.9 11.7 77.2 34.6 76.3 59.8-1.3 32.5-56 57-124.5 57-3.9 0-7.8-0.1-11.8-0.2-58.1-2.4-106.8-21.6-124.3-46.4-3.6 0.2-4.8 0.5-11 0.5-6.2 0-7.3-0.3-11-0.5-17.5 24.8-66.2 44.1-124.3 46.4-4 0.2-7.9 0.2-11.8 0.2-68.5 0-123.2-24.5-124.5-57-1-25.2 30.4-48.1 76.3-59.8-56.2-51.8-69.9-113.2-69.9-113.2s-12.5 28.2-35 52.3c-6.8 7.2-12.2 9.7-16.5 9.7-9.3 0-13.1-11.6-13.1-11.6-42.9-122.3 48-226.7 48-226.7-1.1-2-1.2-4.5-1.2-4.5l20.8-76c3.4-4.1 8.3-4.5 8.3-4.5-9.8-159.3 60.7-236.4 129.8-273.8 38.6-20.9 81.3-31.3 124.1-31.3 42.7 0 85.5 10.4 124.1 31.3 69.2 37.4 139.6 114.6 129.8 273.8 0 0 4.9 0.4 8.3 4.5l20.8 76c0 0-0.1 2.6-1.2 4.5C792 503 882.8 607.4 840 729.8z" fill="#272636"></path></g></g></svg>