<?xml version="1.0" standalone="no"?><!DOCTYPE svg PUBLIC "-//W3C//DTD SVG 1.1//EN" "http://www.w3.org/Graphics/SVG/1.1/DTD/svg11.dtd"><svg width="16" height="16" viewBox="0 0 16 16" version="1.1" xmlns="http://www.w3.org/2000/svg" xmlns:xlink="http://www.w3.org/1999/xlink"><defs><style type="text/css"><![CDATA[
@font-face { font-family: ifont; src: url("http://at.alicdn.com/t/font_1442373896_4754455.eot?#iefix") format("embedded-opentype"), url("http://at.alicdn.com/t/font_1442373896_4754455.woff") format("woff"), url("http://at.alicdn.com/t/font_1442373896_4754455.ttf") format("truetype"), url("http://at.alicdn.com/t/font_1442373896_4754455.svg#ifont") format("svg"); }

]]></style></defs><g class="transform-group"><g transform="scale(0.015625, 0.015625)"><path d="M760.788732 439.887324c3.605634-284.84507-230.760563-414.647887-248.788732-425.464789l0 0c0 0 0 0 0 0 0 0 0 0 0 0l0 0c-14.422535 7.211268-252.394366 137.014085-248.788732 425.464789-46.873239 32.450704-97.352113 86.535211-90.140845 180.28169 7.211268 93.746479 100.957746 158.647887 137.014085 155.042254 36.056338-3.605634 25.239437-28.84507 25.239437-28.84507l10.816901-50.478873c0 0 54.084507 79.323944 68.507042 79.323944 14.422535 0 86.535211 0 97.352113 0l0 0c0 0 0 0 0 0 0 0 0 0 0 0l0 0c7.211268 0 79.323944 0 97.352113 0 18.028169 0 68.507042-79.323944 68.507042-79.323944l10.816901 50.478873c0 0-10.816901 25.239437 25.239437 28.84507 36.056338 3.605634 129.802817-61.295775 137.014085-155.042254C858.140845 526.422535 807.661972 472.338028 760.788732 439.887324L760.788732 439.887324zM512 436.28169c-7.211268 0-93.746479-3.605634-104.56338-104.56338 3.605634-97.352113 97.352113-104.56338 104.56338-108.169014 7.211268 0 100.957746 10.816901 104.56338 108.169014C605.746479 432.676056 519.211268 436.28169 512 436.28169L512 436.28169zM512 436.28169M457.915493 930.253521c0 10.816901-10.816901 21.633803-21.633803 21.633803l0 0c-10.816901 0-21.633803-10.816901-21.633803-21.633803l0-104.56338c0-10.816901 10.816901-21.633803 21.633803-21.633803l0 0c10.816901 0 21.633803 10.816901 21.633803 21.633803L457.915493 930.253521 457.915493 930.253521zM457.915493 930.253521M537.239437 984.338028c0 10.816901-10.816901 21.633803-21.633803 21.633803l0 0c-10.816901 0-21.633803-10.816901-21.633803-21.633803L493.971831 829.295775c0-10.816901 10.816901-21.633803 21.633803-21.633803l0 0c10.816901 0 21.633803 10.816901 21.633803 21.633803L537.239437 984.338028 537.239437 984.338028zM537.239437 984.338028M609.352113 905.014085c0 10.816901-10.816901 21.633803-21.633803 21.633803l0 0c-10.816901 0-21.633803-10.816901-21.633803-21.633803L566.084507 829.295775c0-10.816901 10.816901-21.633803 21.633803-21.633803l0 0c10.816901 0 21.633803 10.816901 21.633803 21.633803L609.352113 905.014085 609.352113 905.014085zM609.352113 905.014085" fill="#ea8010"></path></g></g></svg>