<?xml version="1.0" standalone="no"?><!DOCTYPE svg PUBLIC "-//W3C//DTD SVG 1.1//EN" "http://www.w3.org/Graphics/SVG/1.1/DTD/svg11.dtd"><svg width="200.5859375" height="200" viewBox="0 0 200.5859375 200" version="1.1" xmlns="http://www.w3.org/2000/svg" xmlns:xlink="http://www.w3.org/1999/xlink"><defs><style type="text/css"><![CDATA[
@font-face { font-family: ifont; src: url("http://at.alicdn.com/t/font_1442373896_4754455.eot?#iefix") format("embedded-opentype"), url("http://at.alicdn.com/t/font_1442373896_4754455.woff") format("woff"), url("http://at.alicdn.com/t/font_1442373896_4754455.ttf") format("truetype"), url("http://at.alicdn.com/t/font_1442373896_4754455.svg#ifont") format("svg"); }

]]></style></defs><g class="transform-group"><g transform="scale(0.1953125, 0.1953125)"><path d="M897.28 958.528c-35.392 0-64-28.608-64-64L833.28 542.272c0-21.888-10.432-41.344-28.672-53.376-18.176-12.096-40.192-14.144-60.352-5.568L588.288 549.504c-47.808 20.48-102.656 20.288-150.528-0.192L38.848 378.88C15.296 368.832 0 345.6 0 320s15.296-48.832 38.848-58.88l398.976-170.496C485.76 70.08 540.736 70.08 588.736 90.688l398.976 170.432c32.512 13.952 47.616 51.52 33.728 84.032-13.888 32.64-51.776 47.552-84.032 33.728L538.432 208.384c-16-6.848-34.368-6.784-50.24-0.064L226.88 320l261.248 111.616c15.872 6.784 34.176 6.848 50.176 0.128l155.968-66.24c59.456-25.408 127.104-19.136 181.056 16.64C929.152 417.792 961.28 477.632 961.28 542.272l0 352.256C961.28 929.856 932.672 958.528 897.28 958.528zM511.424 896.448c-78.144 0-156.608-22.528-225.344-67.84C268.096 816.768 257.28 796.672 257.28 775.168L257.28 441.344c0-35.392 28.608-64 64-64s64 28.608 64 64l0 297.088c80.448 40.512 174.976 39.68 254.656-2.048l0-302.72c0-35.392 28.608-64 64-64s64 28.608 64 64l0 338.944c0 22.528-11.84 43.328-31.04 54.848C669.248 873.344 590.528 896.448 511.424 896.448zM896 832 896 348.48 896 832Z" fill="#ea8010"></path></g></g></svg>